<svg xmlns="http://www.w3.org/2000/svg" xml:space="preserve" width="173.679" height="198.145"><path style="fill:#000;fill-opacity:1;fill-rule:nonzero;stroke:none" d="M0 0c-.914.44-1.901.491-2.895.491h-3.262v-12.276h1.907c0 .695-.046 1.417.252 2.066.481 1.045 1.601 1.547 2.579 2.021C-.37-7.191.793-6.696 1.489-5.713c.617.871.785 2.025.605 3.066C1.887-1.457 1.073-.517 0 0m-.094-4.693c-.453-.678-1.219-1.059-1.929-1.413-.775-.387-1.573-.771-2.227-1.351v6.173h1.808c1.012 0 2.127-.311 2.527-1.351.244-.634.202-1.485-.179-2.058" transform="matrix(1.33333 0 0 -1.33333 13.21 123.503)"/><path style="fill:#000;fill-opacity:1;fill-rule:nonzero;stroke:none" d="M0 0c-1.652.934-4.02.658-5.297-.781-.621-.699-.936-1.599-.992-2.524-.014-.234-.009-8.631-.009-8.631h1.888v4.067c1.112.141 2.357.033 3.29-.645.836-.607 1.203-1.563 1.205-2.573v-.849h1.889v8.232C1.972-2.194 1.353-.765 0 0m-.019-7.328C-1.141-6.19-2.862-5.792-4.41-6.039v2.006c0 .369-.009.738.086 1.099a2.156 2.156 0 0 0 1.387 1.491c.709.239 1.53.131 2.132-.318.604-.451.883-1.144.89-1.884.005-.576 0-1.153 0-1.729v-2.073c-.035.039-.067.082-.104.119" transform="matrix(1.33333 0 0 -1.33333 31.906 123.302)"/><path style="fill:#000;fill-opacity:1;fill-rule:nonzero;stroke:none" d="M0 0a4.114 4.114 0 0 1-.695.289c.606.333 1.206.744 1.63 1.299.393.515.617 1.109.688 1.751.147 1.346-.293 2.629-1.401 3.45-1.476 1.096-3.343.926-5.076.926h-1.803V-4.561h1.907c0 .364-.013.731.004 1.095.038.811.396 1.594 1.105 2.028.693.423 1.639.473 2.378.142.745-.334 1.228-1.05 1.349-1.846.071-.464.037-.951.037-1.419h1.926c0 .674.037 1.36-.112 2.022A3.831 3.831 0 0 1 0 0m-2.88 5.94c1.214 0 2.442-.593 2.574-1.921.064-.639-.076-1.272-.501-1.763-.465-.536-1.158-.86-1.786-1.162C-3.355.727-4.12.345-4.75-.228V5.94Z" transform="matrix(1.33333 0 0 -1.33333 51.85 133.135)"/><path style="fill:#000;fill-opacity:1;fill-rule:nonzero;stroke:none" d="M0 0c.622.166 1.266.243 1.907.283v1.436H0Z" transform="matrix(1.33333 0 0 -1.33333 62.489 125.14)"/><path style="fill:#000;fill-opacity:1;fill-rule:nonzero;stroke:none" d="M0 0v-9.481h1.907V.283A9.104 9.104 0 0 1 0 0" transform="matrix(1.33333 0 0 -1.33333 62.489 126.575)"/><path style="fill:#000;fill-opacity:1;fill-rule:nonzero;stroke:none" d="M0 0c-.684.537-1.503.846-2.312 1.142-.75.273-1.622.562-2.164 1.181-.501.571-.389 1.476.127 1.995.534.536 1.391.656 2.094.433.794-.251 1.273-.966 1.273-1.786H.906c0 .9-.288 1.765-.907 2.428-.6.642-1.427 1.024-2.292 1.137-.899.118-1.831.001-2.626-.452-.746-.424-1.375-1.098-1.642-1.925-.255-.79-.199-1.776.207-2.508C-5.901.83-5.083.34-4.248-.017c.908-.387 1.955-.625 2.767-1.204.327-.233.599-.532.696-.931.095-.39.06-.83-.121-1.19-.441-.877-1.539-1.145-2.438-.972-1.008.193-1.736 1.035-1.736 2.067h-1.87c0-.999.325-1.941 1.04-2.652.708-.706 1.691-1.087 2.678-1.166 1.035-.083 2.103.127 2.96.733a3.388 3.388 0 0 1 1.423 2.39C1.27-1.816.906-.712 0 0" transform="matrix(1.33333 0 0 -1.33333 82.004 131.36)"/><path style="fill:#000;fill-opacity:1;fill-rule:nonzero;stroke:none" d="M0 0c.422.524.833 1.076 1.112 1.692.275.608.374 1.281.3 1.944C1.271 4.898.398 5.945-.74 6.465c-1.163.531-2.628.506-3.766-.076-1.149-.587-1.973-1.708-2.042-3.014-.071-1.335.55-2.515 1.6-3.318l1.076 1.378c-.386.369-.692.816-.78 1.352-.085.516.003 1.037.317 1.462.616.833 1.853 1.084 2.768.624.457-.229.841-.627 1.005-1.116.171-.509.09-1.094-.127-1.576-.22-.487-.57-.903-.901-1.317l-3.824-4.783-1.366-1.709h8.631v1.756H-3.1Z" transform="matrix(1.33333 0 0 -1.33333 105.7 131.713)"/><path style="fill:#000;fill-opacity:1;fill-rule:nonzero;stroke:none" d="M0 0c-1.902 1.859-4.881 2.359-7.295 1.245-2.435-1.124-3.901-3.709-3.648-6.373.248-2.612 2.2-4.851 4.737-5.494 2.574-.652 5.398.308 6.939 2.492C2.282-5.934 2.237-2.851.62-.704.431-.454.224-.219 0 0m-.425-6.261C-1.17-8.01-2.928-9.134-4.833-9.019c-1.846.11-3.449 1.433-3.984 3.192A4.623 4.623 0 0 0-7.216-.86C-5.711.288-3.58.329-2.025-.748-.287-1.952.404-4.311-.425-6.261" transform="matrix(1.33333 0 0 -1.33333 129.623 125.04)"/><path style="fill:#000;fill-opacity:1;fill-rule:nonzero;stroke:none" d="M0 0c.422.524.833 1.076 1.112 1.692.275.608.374 1.281.3 1.944C1.27 4.898.398 5.945-.74 6.465c-1.163.531-2.628.506-3.766-.076-1.149-.587-1.973-1.708-2.042-3.014-.071-1.335.549-2.515 1.6-3.318l1.076 1.378c-.386.369-.692.816-.78 1.352-.085.516.002 1.037.317 1.462.616.833 1.853 1.084 2.768.624.457-.229.841-.627 1.005-1.116.171-.509.09-1.094-.127-1.576-.22-.487-.57-.903-.902-1.317l-3.823-4.783-1.366-1.709h8.631v1.756H-3.1Z" transform="matrix(1.33333 0 0 -1.33333 148.308 131.713)"/><path style="fill:#000;fill-opacity:1;fill-rule:nonzero;stroke:none" d="M0 0v-4.161c-.908.647-2.043.844-2.993 1.413-.821.491-1.082 1.35-1.086 2.259-.005.89 0 3.775 0 3.775h-1.908s-.002-2.555 0-3.833c.002-1.308.324-2.587 1.395-3.429.66-.519 1.454-.839 2.241-1.114.702-.246 1.448-.554 1.93-1.147C-.042-6.704 0-7.263 0-7.839V-8.99h1.832V0Z" transform="matrix(1.33333 0 0 -1.33333 166.236 127.23)"/><path style="fill:#fcb030;fill-opacity:1;fill-rule:nonzero;stroke:none" d="M0 0c0-5.566-4.515-10.08-10.081-10.08-5.567 0-10.078 4.514-10.078 10.08 0 5.567 4.511 10.079 10.078 10.079C-4.515 10.079 0 5.567 0 0m-10.081 8.399a8.399 8.399 0 0 1 0-16.798 8.4 8.4 0 1 1 0 16.798" transform="matrix(1.33333 0 0 -1.33333 85.72 179.705)"/><path style="fill:#00a652;fill-opacity:1;fill-rule:nonzero;stroke:none" d="M0 0c0-5.566-4.514-10.08-10.08-10.08-5.567 0-10.08 4.514-10.08 10.08 0 5.567 4.513 10.079 10.08 10.079C-4.514 10.079 0 5.567 0 0m-10.08 8.399A8.399 8.399 0 0 1-18.479 0a8.4 8.4 0 1 1 8.399 8.399" transform="matrix(1.33333 0 0 -1.33333 114.84 179.705)"/><path style="fill:#0082c7;fill-opacity:1;fill-rule:nonzero;stroke:none" d="M0 0c-5.568 0-10.08-4.51-10.08-10.077 0-5.566 4.512-10.079 10.08-10.079.294 0 .583.017.872.041-.02.263-.034.53-.034.799 0 .301.017.593.041.885A9.125 9.125 0 0 0 0-18.474a8.398 8.398 0 0 0-8.401 8.397 8.4 8.4 0 1 0 16.8 0 8.4 8.4 0 0 0-5.786-7.981 8.574 8.574 0 0 1-.078-1.775c4.339 1.127 7.542 5.069 7.542 9.756C10.077-4.51 5.566 0 0 0" transform="matrix(1.33333 0 0 -1.33333 57.723 153.95)"/><path style="fill:#e8384f;fill-opacity:1;fill-rule:nonzero;stroke:none" d="M0 0c-5.296 0-9.635-4.084-10.044-9.276a9.817 9.817 0 0 0 1.662-.286 8.4 8.4 0 1 0 .078-1.774 8.499 8.499 0 0 1-1.734.369c.449-5.148 4.772-9.191 10.038-9.191 5.566 0 10.079 4.513 10.079 10.081C10.079-4.512 5.566 0 0 0" transform="matrix(1.33333 0 0 -1.33333 115.957 153.948)"/><path style="fill:#000;fill-opacity:1;fill-rule:nonzero;stroke:none" d="M0 0c-5.298 0-9.638-4.089-10.046-9.276.57-.051 1.124-.148 1.664-.286A8.4 8.4 0 1 0 2.615-18.06a8.736 8.736 0 0 1-.095-1.258c0-.174.005-.344.017-.517 4.337 1.127 7.542 5.069 7.542 9.758C10.079-4.512 5.567 0 0 0" transform="matrix(1.33333 0 0 -1.33333 86.84 153.948)"/><path style="fill:#000;fill-opacity:1;fill-rule:nonzero;stroke:none" d="M0 0c0 .301.015.593.041.885A9.182 9.182 0 0 0-.84.842a8.404 8.404 0 0 0-8.308 7.139 8.329 8.329 0 0 1-1.73.368C-10.429 3.203-6.107-.84-.84-.84c.294 0 .585.017.872.041C.01-.536 0-.269 0 0" transform="matrix(1.33333 0 0 -1.33333 87.96 179.705)"/><path style="fill:#d6c278;fill-opacity:1;fill-rule:nonzero;stroke:none" d="M0 0c-1.054.392-2.827.428-4.326-.792C-5.825.428-7.598.392-8.652 0c-.881-.328-1.572-.547-2.87-.536a7.977 7.977 0 0 1 7.196-4.53c3.17 0 5.91 1.849 7.196 4.53C1.572-.547.881-.328 0 0" transform="matrix(1.33333 0 0 -1.33333 92.607 94.816)"/><path style="fill:#d6c278;fill-opacity:1;fill-rule:nonzero;stroke:none" d="M0 0c-21.695 0-39.284-17.588-39.284-39.284 0-18.597 12.925-34.177 30.282-38.247-13.793 7.379-19.417 24.299-12.766 38.472 1.075-5.597 4.724-10.584 10.176-13.172-7.111 16.632-1.875 36.184 12.8 46.997-2.887-9.885 1.547-18.93 11.058-25.759 10.879-7.81 11.339-23.747 1.738-32.362a18.327 18.327 0 0 1 10.012 6.203C22.381-65.576 17.099-73.198 9-77.531c17.358 4.07 30.282 19.65 30.282 38.247C39.282-17.588 21.695 0 0 0" transform="matrix(1.33333 0 0 -1.33333 86.84 5)"/><path style="fill:#d6c278;fill-opacity:1;fill-rule:nonzero;stroke:none" d="M0 0h.742v-2.569h.357V0h.742v.335H0Zm5.125.335c-.554 0-.996-.241-1.211-.639-.214.398-.656.639-1.211.639h-.192v-2.904h.358v2.546h.013c.519 0 .854-.366.854-.929v-.723h.357v.723c0 .563.335.929.853.929h.013v-2.546h.358V.335z" transform="matrix(1.33333 0 0 -1.33333 125.038 104.952)"/></svg>